<svg width="31" height="31" viewBox="0 0 31 31" fill="none" xmlns="http://www.w3.org/2000/svg">
<path d="M19.7792 9.41992H27.3141" stroke="black" stroke-width="1.88371" stroke-linecap="round" stroke-linejoin="round"/>
<path d="M18.8379 17.896H28.2565C28.2545 16.8096 27.876 15.7576 27.1856 14.9189C26.4951 14.0802 25.5354 13.5068 24.4696 13.2962C23.4039 13.0856 22.2982 13.2508 21.3406 13.7638C20.383 14.2769 19.6329 15.1059 19.2178 16.1098C18.8028 17.1137 18.7485 18.2305 19.0642 19.2699C19.38 20.3093 20.0462 21.2072 20.9495 21.8106C21.8528 22.4141 22.9374 22.6858 24.0185 22.5795C25.0996 22.4733 26.1105 21.9956 26.879 21.2278" stroke="black" stroke-width="1.88371" stroke-linecap="round" stroke-linejoin="round"/>
<path d="M3.76765 14.5991H11.538C12.5996 14.5991 13.6178 15.0208 14.3684 15.7715C15.1191 16.5222 15.5409 17.5403 15.5409 18.602C15.5409 19.6636 15.1191 20.6818 14.3684 21.4324C13.6178 22.1831 12.5996 22.6049 11.538 22.6049H3.76765V7.53516H10.1252C11.0619 7.53516 11.9603 7.90727 12.6227 8.56964C13.285 9.23202 13.6571 10.1304 13.6571 11.0671C13.6571 12.0039 13.285 12.9022 12.6227 13.5646C11.9603 14.227 11.0619 14.5991 10.1252 14.5991" stroke="black" stroke-width="1.88371" stroke-linecap="round" stroke-linejoin="round"/>
</svg>
