<svg width="31" height="31" viewBox="0 0 31 31" fill="none" xmlns="http://www.w3.org/2000/svg">
<path d="M15.2093 19.7809C17.8101 19.7809 19.9186 17.6725 19.9186 15.0716C19.9186 12.4707 17.8101 10.3623 15.2093 10.3623C12.6084 10.3623 10.5 12.4707 10.5 15.0716C10.5 17.6725 12.6084 19.7809 15.2093 19.7809Z" stroke="black" stroke-width="1.88371" stroke-miterlimit="10"/>
<path d="M20.3895 4.23926H10.0291C6.90803 4.23926 4.37793 6.76936 4.37793 9.8904V20.2508C4.37793 23.3719 6.90803 25.902 10.0291 25.902H20.3895C23.5105 25.902 26.0406 23.3719 26.0406 20.2508V9.8904C26.0406 6.76936 23.5105 4.23926 20.3895 4.23926Z" stroke="black" stroke-width="1.88371" stroke-linecap="round" stroke-linejoin="round"/>
<path d="M21.3316 10.3617C22.1119 10.3617 22.7444 9.72918 22.7444 8.94892C22.7444 8.16866 22.1119 7.53613 21.3316 7.53613C20.5514 7.53613 19.9189 8.16866 19.9189 8.94892C19.9189 9.72918 20.5514 10.3617 21.3316 10.3617Z" fill="black"/>
</svg>
