<svg width="31" height="31" viewBox="0 0 31 31" fill="none" xmlns="http://www.w3.org/2000/svg">
<g clip-path="url(#clip0_2_413)">
<path d="M25.3781 4.24023H5.59908C5.07891 4.24023 4.65723 4.66192 4.65723 5.18209V24.9611C4.65723 25.4813 5.07891 25.9029 5.59908 25.9029H25.3781C25.8982 25.9029 26.3199 25.4813 26.3199 24.9611V5.18209C26.3199 4.66192 25.8982 4.24023 25.3781 4.24023Z" stroke="black" stroke-width="1.88371" stroke-linecap="round" stroke-linejoin="round"/>
<path d="M14.5469 13.1885V20.7233" stroke="black" stroke-width="1.88371" stroke-linecap="round" stroke-linejoin="round"/>
<path d="M10.7793 13.1885V20.7233" stroke="black" stroke-width="1.88371" stroke-linecap="round" stroke-linejoin="round"/>
<path d="M14.5469 16.485C14.5469 15.6107 14.8942 14.7722 15.5124 14.154C16.1306 13.5358 16.9691 13.1885 17.8434 13.1885C18.7177 13.1885 19.5561 13.5358 20.1744 14.154C20.7926 14.7722 21.1399 15.6107 21.1399 16.485V20.7233" stroke="black" stroke-width="1.88371" stroke-linecap="round" stroke-linejoin="round"/>
<path d="M10.78 10.8324C11.5602 10.8324 12.1928 10.1999 12.1928 9.41962C12.1928 8.63936 11.5602 8.00684 10.78 8.00684C9.99971 8.00684 9.36719 8.63936 9.36719 9.41962C9.36719 10.1999 9.99971 10.8324 10.78 10.8324Z" fill="black"/>
</g>
<defs>
<clipPath id="clip0_2_413">
<rect width="30.1394" height="30.1394" fill="white" transform="translate(0.418945 0.000976562)"/>
</clipPath>
</defs>
</svg>
