<svg width="14" height="25" viewBox="0 0 14 25" fill="none" xmlns="http://www.w3.org/2000/svg">
<path d="M7 25C5.07182 25 3.42364 24.35 2.05546 23.05C0.687276 21.75 3.52205e-06 20.1438 3.19093e-06 18.25L8.41444e-07 4.8125C6.08681e-07 3.48125 0.483637 2.34375 1.44455 1.40625C2.41182 0.46875 3.57636 -6.25311e-07 4.93182 -8.62306e-07C6.31273 -1.10375e-06 7.47727 0.468749 8.43182 1.40625C9.38636 2.34375 9.86363 3.4875 9.86363 4.84375L9.86364 17.1563C9.86364 17.95 9.59 18.6187 9.03636 19.1688C8.48273 19.725 7.80818 20 7 20C6.19182 20 5.51727 19.7 4.96364 19.1125C4.41 18.5188 4.13637 17.8125 4.13637 17L4.13636 4.75L5.40909 4.75L5.40909 17.0938C5.40909 17.55 5.56182 17.9437 5.87364 18.2625C6.18546 18.5813 6.55455 18.75 7 18.75C7.44546 18.75 7.82091 18.5938 8.12637 18.2813C8.43182 17.9688 8.59091 17.5938 8.59091 17.1563L8.59091 4.8125C8.59091 3.8125 8.23454 2.96875 7.52818 2.28125C6.81545 1.59375 5.95 1.25 4.93182 1.25C3.91364 1.25 3.04818 1.59375 2.34182 2.28125C1.63545 2.96875 1.27273 3.8125 1.27273 4.8125L1.27273 18.3125C1.27273 19.8313 1.83273 21.1188 2.95909 22.1688C4.08546 23.225 5.42818 23.75 7 23.75C8.59091 23.75 9.94 23.2188 11.06 22.1562C12.1736 21.0937 12.7273 19.7938 12.7273 18.25L12.7273 4.75L14 4.75L14 18.2187C14 20.1125 13.3127 21.7187 11.9445 23.0312C10.5764 24.3438 8.92818 25 7 25Z" fill="black"/>
</svg>
