<svg width="31" height="31" viewBox="0 0 31 31" fill="none" xmlns="http://www.w3.org/2000/svg">
<g clip-path="url(#clip0_2_420)">
<path d="M15.7672 10.3611C15.7672 7.77097 17.9453 5.61648 20.5354 5.6518C21.4425 5.66227 22.3272 5.93449 23.0832 6.43574C23.8393 6.937 24.4345 7.64595 24.7973 8.47737H28.9532L25.1505 12.2801C24.9051 16.1 23.2141 19.6831 20.4214 22.3008C17.6287 24.9186 13.9439 26.3745 10.1161 26.3726C6.34867 26.3726 5.40682 24.9599 5.40682 24.9599C5.40682 24.9599 9.17424 23.5471 11.058 20.7215C11.058 20.7215 3.5231 16.9541 5.40682 6.59365C5.40682 6.59365 10.1161 11.3029 15.7672 12.2448V10.3611Z" stroke="black" stroke-width="1.88371" stroke-linecap="round" stroke-linejoin="round"/>
</g>
<defs>
<clipPath id="clip0_2_420">
<rect width="30.1394" height="30.1394" fill="white" transform="translate(0.698242 0.000976562)"/>
</clipPath>
</defs>
</svg>
